<?xml version="1.0" standalone="no"?>
<!DOCTYPE svg PUBLIC "-//W3C//DTD SVG 20010904//EN"
 "http://www.w3.org/TR/2001/REC-SVG-20010904/DTD/svg10.dtd">
<svg version="1.0" xmlns="http://www.w3.org/2000/svg"
 width="1482.000000pt" height="1482.000000pt" viewBox="0 0 1482.000000 1482.000000"
 preserveAspectRatio="xMidYMid meet">
<metadata>
Created by potrace 1.14, written by Peter Selinger 2001-2017
</metadata>
<g transform="translate(0.000000,1482.000000) scale(0.100000,-0.100000)"
fill="#000000" stroke="none">
<path d="M6908 13625 c-1 -2 -39 -6 -83 -9 -44 -4 -96 -8 -115 -11 -19 -3 -55
-7 -80 -9 -243 -24 -643 -119 -930 -223 -455 -164 -929 -432 -1291 -729 -24
-19 -53 -42 -64 -51 -131 -105 -389 -360 -532 -526 -307 -357 -540 -725 -748
-1182 -83 -182 -239 -632 -259 -748 -3 -16 -9 -43 -15 -60 -34 -107 -97 -477
-116 -677 -3 -36 -8 -83 -11 -105 -9 -70 -12 -637 -4 -720 4 -44 11 -111 14
-150 7 -78 14 -144 21 -192 3 -18 7 -50 10 -70 4 -21 15 -87 26 -148 11 -60
23 -123 26 -140 12 -74 85 -343 128 -475 242 -741 624 -1368 1164 -1909 221
-221 478 -431 716 -585 50 -32 102 -67 117 -77 15 -11 29 -19 32 -19 2 0 40
-21 83 -46 274 -163 695 -339 1018 -428 144 -39 292 -72 365 -82 25 -3 48 -8
52 -10 3 -2 30 -7 60 -10 29 -3 55 -7 58 -9 3 -2 37 -6 75 -10 39 -4 77 -9 86
-10 139 -26 768 -26 929 -1 14 3 66 10 115 16 96 12 366 60 376 66 3 2 21 6
40 9 99 17 411 114 579 180 212 82 588 265 641 311 8 8 19 14 23 14 18 0 382
247 461 312 11 9 49 40 85 69 282 229 551 510 779 814 79 105 230 327 265 390
9 17 22 39 29 50 52 83 176 320 222 425 15 36 38 88 51 115 96 208 257 713
289 907 3 18 14 80 25 138 34 183 55 345 68 515 15 203 7 723 -13 870 -2 17
-6 55 -10 85 -9 88 -35 259 -51 332 -7 37 -16 82 -19 100 -4 18 -17 78 -31
133 -14 55 -26 107 -28 115 -79 322 -258 766 -441 1095 -96 172 -81 147 -174
290 -98 151 -292 412 -361 486 -8 8 -40 44 -70 80 -69 80 -306 318 -384 384
-32 28 -68 58 -80 69 -62 55 -220 176 -329 253 -451 317 -934 539 -1462 672
-104 26 -299 67 -360 76 -127 17 -189 25 -235 30 -30 3 -71 8 -90 11 -39 6
-636 14 -642 9z m617 -189 c53 -6 150 -16 200 -21 17 -1 46 -5 65 -8 19 -3 55
-9 80 -12 36 -5 196 -37 302 -60 10 -2 87 -25 172 -50 306 -91 636 -232 900
-384 49 -28 91 -51 93 -51 18 0 417 -278 439 -306 6 -8 16 -14 22 -14 6 0 12
-3 14 -7 2 -5 46 -44 98 -88 183 -155 358 -328 490 -485 30 -36 57 -67 60 -70
3 -3 30 -36 61 -75 302 -377 553 -833 733 -1330 53 -146 136 -429 160 -550 32
-157 30 -147 51 -290 26 -180 24 -163 42 -365 15 -176 7 -747 -12 -862 -2 -13
-7 -50 -10 -83 -3 -33 -12 -100 -20 -150 -7 -49 -16 -106 -19 -125 -67 -439
-273 -999 -551 -1495 -72 -128 -296 -464 -324 -485 -4 -3 -18 -21 -31 -40 -14
-19 -32 -42 -40 -52 -8 -9 -28 -33 -45 -53 -171 -207 -382 -419 -579 -580 -27
-22 -54 -45 -60 -51 -77 -74 -561 -397 -587 -390 -4 0 -15 -6 -25 -15 -28 -24
-261 -139 -412 -203 -323 -136 -625 -223 -952 -275 -58 -9 -105 -15 -205 -27
-234 -26 -754 -26 -915 1 -14 2 -56 6 -94 10 -38 3 -72 8 -75 9 -3 2 -28 7
-55 10 -273 37 -618 137 -941 273 -241 101 -627 313 -778 426 -23 18 -61 45
-85 61 -38 26 -247 191 -278 220 -7 6 -51 47 -100 91 -104 96 -186 177 -274
275 -36 39 -74 81 -85 93 -40 43 -192 234 -240 302 -27 39 -53 75 -58 80 -20
24 -149 229 -205 326 -262 454 -461 996 -547 1484 -17 98 -32 205 -40 280 -3
33 -8 71 -10 85 -26 146 -26 888 0 990 2 8 6 46 10 83 3 37 8 78 11 90 2 12 7
47 10 77 3 30 7 57 9 60 2 3 6 26 10 50 12 88 64 310 100 432 20 68 38 130 40
138 9 36 91 256 142 380 102 246 287 593 433 811 49 73 227 311 262 350 13 15
35 41 50 60 88 106 304 329 319 329 5 0 9 7 9 15 0 8 3 15 8 15 4 0 26 17 48
38 23 20 66 58 95 84 30 25 65 56 79 68 14 12 68 54 120 93 52 40 97 75 100
78 12 13 273 180 365 234 129 74 411 212 545 265 402 161 808 257 1215 286 50
3 92 8 94 10 6 5 541 -4 596 -10z"/>
<path d="M6977 12634 c-2 -2 -43 -6 -92 -9 -50 -4 -106 -8 -125 -10 -100 -10
-137 -15 -160 -19 -47 -10 -75 -16 -110 -22 -19 -3 -39 -7 -45 -8 -5 -2 -21
-6 -35 -9 -14 -4 -36 -9 -50 -11 -45 -9 -64 -14 -116 -31 -28 -9 -57 -18 -65
-19 -8 -2 -21 -6 -29 -9 -8 -3 -58 -21 -110 -40 -137 -51 -192 -76 -216 -98
-12 -11 -33 -21 -47 -23 -14 -1 -50 -19 -79 -39 -29 -20 -61 -37 -70 -37 -9 0
-21 -6 -25 -14 -4 -8 -37 -29 -73 -48 -36 -18 -81 -44 -100 -58 -43 -31 -70
-48 -90 -57 -8 -4 -17 -9 -20 -13 -3 -3 -41 -32 -85 -65 -126 -94 -222 -180
-330 -297 -116 -124 -195 -223 -231 -285 -10 -18 -21 -33 -25 -33 -9 0 -49
-68 -49 -84 0 -14 -58 -138 -69 -146 -22 -17 -131 -221 -131 -245 0 -3 -18
-43 -40 -90 -22 -47 -40 -89 -40 -93 0 -4 -9 -24 -20 -45 -20 -37 -43 -116
-55 -184 -3 -18 -10 -45 -16 -60 -6 -15 -10 -29 -9 -31 1 -1 -1 -15 -4 -30 -4
-15 -9 -37 -11 -49 -3 -13 -7 -33 -10 -45 -3 -13 -7 -34 -10 -48 -2 -14 -14
-59 -26 -100 -12 -41 -22 -99 -22 -127 1 -29 -3 -53 -7 -53 -5 0 -15 -13 -23
-29 -11 -22 -12 -32 -3 -41 16 -16 16 -68 -2 -75 -10 -4 -11 -9 -4 -18 16 -18
18 -193 3 -211 -12 -14 -10 -149 3 -216 3 -14 8 -52 11 -85 9 -75 12 -104 19
-135 3 -14 9 -41 12 -60 22 -121 90 -353 151 -515 48 -126 156 -343 217 -440
20 -30 36 -58 36 -61 0 -8 44 -69 53 -72 4 -2 7 -10 7 -17 0 -7 3 -15 8 -17 4
-1 26 -28 49 -58 23 -30 86 -98 140 -151 54 -52 124 -124 155 -160 31 -35 67
-76 80 -90 13 -14 46 -43 73 -65 28 -21 52 -41 55 -44 3 -3 24 -19 47 -36 43
-31 46 -44 11 -44 -10 0 -18 -4 -18 -10 0 -5 -3 -9 -7 -8 -9 3 -105 -33 -113
-41 -3 -4 -12 -7 -20 -9 -26 -6 -135 -56 -141 -65 -3 -5 -8 -8 -10 -6 -2 1
-15 -1 -29 -5 -14 -5 -34 -10 -45 -12 -11 -3 -24 -9 -29 -14 -6 -6 -25 -10
-43 -10 -18 0 -33 -4 -33 -10 0 -5 -9 -10 -21 -10 -11 0 -17 -4 -14 -10 3 -5
0 -7 -9 -4 -23 9 -50 -50 -36 -79 9 -18 9 -20 -2 -7 -18 21 -49 25 -42 5 3 -8
9 -13 13 -11 4 3 18 -5 31 -16 l25 -20 -26 15 c-17 10 -30 12 -36 6 -12 -12
-66 28 -57 43 5 7 2 8 -5 4 -9 -6 -8 -13 5 -27 18 -20 6 -27 -13 -8 -8 8 -13
7 -18 -2 -5 -7 -4 -10 3 -5 6 3 15 -2 21 -11 9 -16 12 -16 21 -3 8 12 9 10 7
-8 -2 -12 -9 -28 -17 -35 -10 -10 -12 -8 -6 8 6 16 5 17 -5 8 -10 -10 -9 -15
1 -28 8 -9 8 -15 2 -15 -6 0 -14 5 -17 10 -9 15 -25 2 -25 -21 0 -13 -4 -18
-12 -13 -7 4 -8 3 -4 -5 10 -16 26 -4 26 20 0 18 1 19 25 3 23 -15 29 -13 26
8 0 4 6 5 14 2 8 -4 15 -1 15 6 0 6 -4 9 -9 5 -5 -3 -13 -1 -16 5 -4 6 -3 10
2 9 20 -3 25 2 14 15 -8 10 -9 16 -1 21 5 3 10 -2 10 -11 0 -17 1 -17 13 -1 9
13 16 14 27 6 12 -9 12 -10 -4 -5 -14 5 -17 2 -12 -9 3 -9 2 -13 -3 -10 -5 3
-12 1 -16 -5 -3 -5 -1 -10 5 -10 7 0 6 -7 -3 -21 -8 -11 -13 -30 -11 -42 4
-20 4 -20 -4 -2 -10 22 -58 29 -66 9 -3 -7 1 -26 9 -41 8 -15 15 -25 16 -20 2
9 6 25 9 35 1 4 2 10 1 15 0 4 4 7 9 7 6 0 10 -7 10 -15 0 -8 -5 -15 -11 -15
-5 0 -7 -5 -3 -11 3 -6 1 -15 -6 -19 -15 -9 -42 -2 -35 10 3 4 -3 14 -12 21
-14 12 -16 12 -8 0 6 -10 4 -13 -6 -9 -10 4 -15 -1 -16 -16 0 -11 1 -15 4 -8
3 6 9 12 14 12 11 0 8 -22 -5 -31 -11 -9 12 -51 25 -44 5 4 9 11 9 16 0 6 -4
8 -9 4 -5 -3 -13 0 -17 6 -4 7 -3 9 4 5 7 -4 9 1 7 15 -4 20 -3 20 13 7 9 -9
24 -13 32 -11 12 4 12 3 -1 -8 -25 -22 -59 -76 -52 -83 3 -3 1 -6 -5 -6 -14 0
-15 10 -2 30 10 16 -7 43 -22 34 -5 -3 -15 0 -23 6 -11 9 -15 9 -15 1 0 -6 5
-11 11 -11 8 0 8 -4 0 -14 -6 -7 -9 -21 -5 -30 5 -13 2 -15 -12 -10 -20 8 -19
6 10 -16 16 -12 18 -12 11 -1 -5 10 -4 12 3 7 8 -5 10 -2 6 8 -3 9 -1 16 6 16
6 0 8 -5 5 -10 -3 -6 1 -13 9 -16 13 -5 12 -9 -4 -27 -18 -18 -25 -45 -21 -70
1 -5 -3 -6 -9 -2 -6 4 -8 16 -4 27 4 13 2 18 -4 14 -6 -3 -14 -1 -18 5 -4 7
-3 9 4 5 7 -4 10 1 7 14 -3 14 0 18 8 14 7 -4 6 -1 -2 7 -10 11 -15 11 -18 2
-3 -7 -9 -13 -15 -13 -6 0 -7 7 -4 16 3 9 2 12 -5 9 -6 -4 -8 -13 -5 -20 3 -8
0 -16 -7 -19 -7 -3 -3 -4 9 -1 12 3 21 0 22 -7 0 -7 3 -25 6 -39 4 -18 0 -31
-13 -43 -18 -16 -22 -16 -50 -2 -19 10 -32 12 -36 6 -3 -6 -3 -10 2 -10 4 0 0
-5 -10 -11 -10 -6 -14 -15 -10 -22 4 -7 8 -26 8 -44 0 -18 4 -35 8 -39 12 -13
8 -24 -10 -24 -16 -1 -16 -2 1 -15 17 -13 18 -15 3 -15 -9 0 -17 5 -17 12 0
16 -13 1 -16 -18 -2 -9 3 -14 11 -10 9 3 7 -7 -7 -30 -16 -28 -18 -37 -8 -49
11 -13 10 -14 -4 -9 -9 3 -16 12 -16 20 0 8 -5 14 -11 14 -5 0 -7 -6 -3 -12 5
-9 2 -8 -9 1 -12 9 -14 17 -7 26 5 6 6 16 2 20 -4 5 -1 5 7 0 10 -6 12 -4 6 5
-6 9 -4 11 5 5 9 -6 11 -4 5 5 -6 9 -4 11 5 5 9 -6 11 -4 5 5 -5 9 -4 11 4 6
14 -9 11 16 -4 26 -6 5 -5 8 3 8 6 0 12 5 12 10 0 17 -14 11 -28 -11 -8 -12
-9 -18 -3 -14 6 3 11 2 11 -3 0 -15 -13 -22 -24 -12 -7 5 -17 5 -26 -2 -13 -8
-12 -9 2 -5 23 8 30 -3 12 -21 -14 -13 -17 -13 -26 -1 -8 11 -9 11 -5 -3 3 -9
1 -19 -6 -22 -7 -3 -1 -3 13 1 22 5 23 4 11 -10 -9 -12 -18 -14 -30 -8 -13 7
-17 5 -18 -10 -1 -10 2 -21 8 -24 5 -4 9 -12 9 -18 -1 -7 -10 -1 -20 12 -11
13 -20 18 -20 13 0 -6 5 -14 10 -17 6 -3 10 -11 10 -17 0 -6 -7 -5 -17 3 -9 8
-14 9 -10 2 8 -13 -12 -65 -23 -58 -4 3 -7 -3 -6 -12 0 -9 -5 -18 -13 -21 -9
-3 -11 0 -6 8 6 9 4 11 -5 5 -10 -6 -9 -11 5 -21 20 -15 14 -31 -7 -18 -20 13
-38 13 -38 2 0 -6 7 -8 15 -4 8 3 18 0 22 -7 9 -14 56 -19 47 -6 -3 5 0 9 6 9
6 0 8 5 4 11 -4 8 -9 7 -16 -2 -8 -11 -9 -11 -5 1 2 8 10 14 16 12 7 -1 9 2 5
9 -4 8 -3 9 4 5 8 -5 10 -2 6 8 -4 10 -1 16 7 16 10 0 10 3 1 12 -16 16 -15
25 2 31 10 4 12 0 8 -16 -3 -13 -1 -18 4 -14 5 5 10 13 10 18 1 5 2 14 3 20 0
5 5 8 10 5 4 -3 7 5 6 19 -2 13 4 30 12 37 14 11 15 10 8 -11 -4 -15 -4 -21 3
-17 6 3 17 3 26 0 15 -6 15 -8 -1 -19 -14 -11 -20 -10 -31 4 -12 14 -12 14 -7
-6 5 -17 2 -23 -9 -23 -13 0 -12 -4 4 -20 11 -11 20 -26 19 -32 0 -7 -5 -3
-11 10 -12 24 -34 31 -24 7 3 -8 -6 -28 -19 -44 -29 -34 -31 -41 -9 -41 8 0
12 5 9 10 -3 6 -1 10 4 10 6 0 11 -4 11 -9 0 -11 309 -9 326 1 6 4 33 10 60
14 27 3 51 9 54 13 3 3 26 7 53 7 26 1 53 6 60 11 6 6 32 10 56 10 24 0 46 4
50 9 3 5 11 9 16 10 15 2 128 34 150 44 11 5 38 14 60 21 22 6 67 24 100 39
33 14 76 33 95 40 19 8 49 21 65 30 48 26 128 66 155 78 14 6 48 21 75 33 28
12 52 23 55 24 3 0 29 7 58 15 28 8 52 18 52 22 0 5 11 6 25 4 14 -3 25 -1 25
3 0 4 6 8 13 9 38 4 80 13 89 18 5 4 28 8 50 10 22 2 47 8 56 13 9 4 30 7 45
6 15 -1 29 1 31 4 3 4 79 6 170 5 154 -2 242 -11 341 -37 22 -6 44 -10 49 -8
5 1 26 -5 47 -13 22 -9 39 -14 39 -11 0 2 15 -2 34 -10 18 -8 36 -11 40 -8 3
4 6 1 6 -5 0 -7 7 -12 15 -12 9 0 34 -9 55 -20 22 -11 40 -17 40 -14 0 4 8 0
18 -9 9 -8 47 -30 85 -48 37 -17 70 -36 73 -41 3 -4 43 12 90 37 46 24 85 44
87 43 1 0 22 10 47 22 25 13 52 25 60 26 8 1 43 13 77 27 60 24 105 37 148 43
11 1 20 3 20 4 0 1 14 4 30 6 17 3 66 11 110 18 79 12 348 13 415 2 91 -16
137 -25 160 -30 14 -4 38 -9 54 -11 16 -3 38 -11 50 -17 11 -6 21 -10 21 -9 0
5 124 -35 170 -54 22 -9 99 -45 170 -80 72 -35 162 -75 200 -90 39 -14 87 -35
108 -46 22 -10 45 -19 52 -19 7 0 18 -6 24 -14 7 -9 32 -14 64 -14 28 -1 53
-6 55 -11 2 -6 12 -11 22 -11 10 0 21 -4 24 -9 7 -11 54 -20 58 -11 3 7 107
-22 130 -36 15 -9 68 -11 68 -3 0 9 81 -10 96 -22 7 -6 108 -8 255 -7 237 3
243 3 265 25 13 13 19 23 14 23 -5 0 -15 -7 -24 -15 -18 -18 -24 -10 -22 28 2
34 0 34 -17 1 -8 -15 -17 -22 -20 -17 -11 17 31 62 54 58 11 -2 17 0 14 5 -8
12 -31 6 -55 -15 -22 -20 -28 -8 -7 14 10 11 10 13 0 7 -7 -4 -13 -2 -13 4 0
7 -7 10 -15 7 -8 -4 -17 -2 -20 3 -3 4 1 10 7 13 7 2 9 8 5 13 -4 5 -11 4 -15
-1 -11 -16 -30 -16 -36 1 -4 10 0 14 11 12 22 -4 26 14 8 37 -15 19 -16 19 -5
-3 13 -27 10 -35 -8 -23 -7 4 -14 21 -15 36 -1 16 -8 30 -15 31 -7 1 -8 0 -2
-3 5 -2 10 -9 10 -14 0 -6 -8 -6 -19 1 -27 14 -30 13 -28 -9 0 -11 5 -17 11
-14 5 4 6 1 1 -7 -6 -9 -4 -11 6 -5 12 8 12 6 0 -9 -12 -15 -12 -17 0 -14 8 2
13 -2 12 -9 -2 -7 4 -10 12 -7 18 7 20 -7 3 -24 -9 -9 -9 -12 0 -12 7 0 12 6
12 13 1 6 7 1 15 -13 12 -22 11 -27 -2 -42 -8 -9 -12 -21 -9 -26 7 -12 -20 -9
-31 3 -4 4 -3 6 2 3 6 -3 18 5 28 18 10 13 13 24 8 24 -5 0 -13 -5 -16 -10 -4
-6 -10 -8 -15 -5 -4 3 -10 -2 -14 -10 -3 -8 -10 -15 -16 -15 -12 0 18 34 32
36 21 4 22 5 4 16 -15 8 -21 8 -24 0 -4 -14 -22 -16 -22 -3 0 5 9 13 20 16 11
4 18 11 14 16 -3 5 -10 6 -16 3 -7 -4 -8 -2 -4 4 4 7 2 12 -3 12 -6 0 -11 -6
-11 -14 0 -20 -17 -29 -26 -14 -4 7 -3 10 1 5 10 -8 35 43 28 56 -3 5 -14 -5
-24 -22 -10 -17 -23 -31 -29 -31 -5 0 -1 9 10 20 21 21 26 40 11 40 -5 0 -11
-8 -13 -18 -3 -10 -12 -19 -21 -19 -9 0 -14 4 -11 9 3 5 10 5 16 2 7 -5 9 -1
5 9 -4 10 1 18 14 22 19 6 45 43 36 52 -3 3 -14 0 -24 -6 -10 -6 -12 -11 -5
-11 6 0 12 -5 12 -11 0 -5 -4 -8 -9 -4 -5 3 -12 1 -16 -5 -13 -21 -36 -11 -31
14 5 30 -19 43 -33 18 -6 -9 -11 -12 -11 -7 0 6 5 16 11 22 8 8 5 15 -10 25
-12 8 -18 18 -14 21 7 7 -11 11 -36 8 -7 -2 -10 3 -6 9 4 6 12 9 18 7 7 -2 20
0 31 5 14 8 17 7 11 -3 -6 -8 -4 -10 5 -4 9 5 11 4 6 -4 -4 -6 -4 -11 1 -10 4
1 16 -1 26 -6 15 -6 16 -10 5 -16 -10 -7 -10 -9 2 -9 12 0 12 -2 1 -9 -9 -6
-10 -11 -2 -15 6 -4 11 -2 11 4 0 6 5 8 11 4 8 -4 7 -9 -2 -14 -16 -11 -21
-43 -6 -37 7 3 11 9 10 15 -1 5 7 18 18 28 20 18 21 18 35 -1 8 -10 14 -13 14
-6 0 7 5 9 12 5 7 -4 8 -3 4 5 -4 6 -12 9 -17 6 -5 -4 -12 1 -15 10 -6 14 -8
14 -25 -1 -23 -21 -25 -7 -2 18 9 10 11 18 6 18 -6 0 -13 -7 -17 -15 -3 -8 -9
-15 -14 -15 -5 0 -9 7 -9 15 0 8 5 15 10 15 5 0 4 7 -3 15 -7 9 -15 13 -18 10
-9 -9 -31 16 -26 30 6 15 -31 39 -46 30 -5 -3 -11 -1 -15 5 -3 5 0 10 8 10 18
0 30 27 16 36 -5 3 -16 0 -24 -6 -15 -13 -15 -13 -30 35 -2 8 0 17 6 20 18 11
-1 25 -21 15 -13 -7 -21 -5 -31 7 -12 14 -11 15 11 9 17 -5 21 -4 11 2 -7 5
-9 12 -5 14 5 3 4 4 -3 2 -6 -1 -19 6 -28 16 -13 15 -14 23 -5 42 11 22 10 22
-4 4 -9 -11 -19 -17 -22 -13 -4 4 -1 14 7 24 12 14 12 16 0 8 -11 -6 -13 -4
-8 8 4 11 2 14 -9 10 -11 -4 -12 -9 -3 -19 12 -15 7 -17 -33 -17 -18 0 -23 -9
-12 -20 4 -3 15 -2 26 4 17 9 18 8 9 -10 -14 -25 -14 -34 -1 -26 6 3 13 -1 16
-10 6 -14 9 -14 16 -3 8 10 9 10 5 -2 -3 -9 1 -24 9 -35 8 -10 14 -13 14 -6 0
7 5 9 11 5 8 -5 8 -9 -1 -14 -8 -5 -7 -9 4 -13 9 -4 15 -1 13 5 -1 6 4 13 11
15 11 4 12 1 3 -15 -14 -26 -14 -42 0 -22 8 12 9 10 4 -7 -3 -12 -1 -24 5 -28
6 -3 7 -11 4 -17 -5 -7 -2 -8 6 -3 9 5 11 4 6 -3 -11 -18 -21 -14 -36 13 -7
14 -17 25 -22 25 -15 0 -8 -17 17 -44 13 -14 20 -26 15 -26 -5 0 -19 14 -31
31 -22 31 -22 32 -4 45 10 8 15 17 11 21 -4 5 -16 -2 -26 -14 -10 -13 -22 -23
-26 -23 -4 0 2 10 14 23 21 22 20 37 0 37 -5 0 -6 -5 -2 -12 4 -6 -3 -4 -17 5
-27 19 -54 23 -43 5 4 -6 3 -8 -4 -5 -12 8 -10 32 3 44 4 4 5 2 1 -4 -4 -7 -3
-13 3 -13 5 0 17 -3 27 -7 16 -6 16 -4 -2 19 -10 14 -22 24 -26 21 -4 -2 -5 2
-3 10 3 7 -3 22 -15 32 -11 10 -20 24 -20 31 0 7 -9 16 -20 19 -11 3 -20 11
-20 16 0 6 5 7 12 3 8 -5 9 -2 5 10 -5 13 -3 15 12 7 10 -6 21 -8 23 -5 3 3 8
-2 11 -10 4 -9 2 -18 -3 -21 -6 -4 -10 -11 -10 -17 0 -6 7 -5 17 3 9 8 14 9
10 3 -3 -6 0 -11 8 -11 12 0 12 4 -1 21 -19 27 -18 42 1 26 13 -11 18 -11 28
-1 9 10 8 12 -7 9 -10 -1 -21 3 -23 10 -3 8 2 10 14 6 15 -5 15 -4 3 5 -11 8
-18 7 -26 -4 -6 -8 -14 -12 -17 -8 -10 9 13 33 31 33 8 0 13 3 9 6 -3 4 -14 3
-24 -1 -18 -8 -27 -11 -39 -14 -4 0 -1 -9 7 -18 12 -17 12 -17 -4 -2 -18 15
-14 54 4 43 5 -3 15 -1 22 3 9 6 6 14 -12 32 -16 15 -22 18 -18 7 4 -10 -1
-24 -12 -35 -11 -11 -16 -23 -13 -27 4 -4 1 -4 -7 1 -10 6 -11 2 -6 -15 4 -14
3 -20 -3 -16 -5 3 -12 15 -15 26 -3 11 -1 18 3 15 5 -3 8 4 7 15 -1 11 -6 20
-11 20 -5 0 -6 3 -3 6 8 9 -11 44 -24 44 -6 0 -6 -8 1 -21 7 -11 9 -23 6 -26
-10 -10 -25 41 -15 52 14 14 11 25 -6 19 -8 -4 -15 -1 -15 6 0 6 5 8 10 5 6
-3 10 -1 10 4 0 6 -4 11 -10 11 -5 0 -10 5 -10 10 0 18 18 10 25 -10 4 -11 11
-18 16 -14 6 4 4 13 -6 24 -12 14 -13 20 -4 26 8 5 10 3 4 -7 -8 -12 -6 -12 8
0 11 9 17 10 17 2 0 -6 -5 -11 -11 -11 -8 0 -9 -4 0 -13 6 -8 9 -17 6 -21 -3
-3 2 0 11 8 13 11 14 18 4 36 -10 18 -9 24 1 31 12 7 11 9 -1 10 -8 1 -18 1
-22 0 -5 0 -8 6 -8 15 0 9 5 12 12 8 6 -4 8 -3 4 4 -3 6 -15 9 -26 7 -11 -2
-20 1 -20 6 0 6 -4 8 -9 4 -6 -3 -15 3 -21 12 -11 17 -11 16 -5 -1 5 -18 4
-19 -12 -5 -10 9 -34 22 -53 29 -19 7 -39 16 -45 20 -5 3 -30 12 -55 20 -25 7
-49 17 -54 22 -6 4 -18 8 -28 8 -10 0 -18 3 -18 8 0 6 -19 15 -105 48 -11 4
-23 6 -27 6 -5 -1 -8 3 -8 8 0 6 -11 10 -25 10 -14 0 -25 4 -25 9 0 5 -8 8
-17 7 -10 -2 -21 1 -24 6 -3 5 -16 11 -29 13 -13 2 -27 10 -32 17 -6 10 -10
10 -18 -2 -8 -13 -10 -13 -10 1 0 8 31 37 70 63 38 26 84 64 101 84 17 21 58
65 90 99 33 35 59 64 59 67 0 2 19 24 43 48 23 25 67 74 99 109 31 35 70 80
87 99 18 19 44 55 58 80 15 25 47 79 71 120 90 150 138 236 161 290 13 30 31
73 40 95 17 40 43 112 84 235 12 36 24 67 27 70 3 3 6 12 8 20 2 8 14 45 28
82 14 38 28 80 30 95 2 16 6 39 8 53 3 14 5 37 5 53 1 16 7 27 15 27 25 0 30
18 49 173 9 77 8 100 -1 106 -17 10 -8 92 10 102 13 7 15 27 9 97 -1 7 -5 11
-10 7 -18 -11 -24 18 -28 136 -3 111 -2 119 17 129 21 11 22 20 5 140 -1 14
-6 45 -9 70 -3 25 -9 59 -12 75 -3 17 -7 39 -9 50 -2 11 -6 34 -10 50 -4 17
-7 38 -8 48 -1 9 -4 17 -8 17 -3 0 -9 15 -12 33 -4 17 -16 66 -27 107 -11 41
-23 88 -26 104 -3 16 -8 34 -12 40 -3 6 -8 20 -9 30 -2 11 -8 25 -14 32 -6 7
-8 18 -4 24 3 5 1 10 -4 10 -6 0 -10 3 -9 8 1 4 -4 18 -9 32 -6 14 -21 50 -33
80 -24 61 -125 265 -158 320 -12 19 -29 49 -38 65 -29 52 -137 210 -146 213
-4 2 -8 8 -8 14 0 5 -6 15 -12 22 -7 7 -26 31 -43 52 -16 21 -38 46 -47 56
-10 10 -18 20 -18 23 0 21 -338 355 -360 355 -4 0 -10 4 -12 9 -9 26 -242 193
-390 280 -82 48 -242 131 -318 164 -99 43 -348 131 -405 143 -23 5 -62 13 -85
19 -34 8 -160 35 -185 40 -131 23 -191 31 -325 41 -92 6 -289 12 -293 8z
m-1267 -2261 c0 -5 -13 -17 -28 -27 l-27 -19 24 26 c26 28 31 32 31 20z m-494
-548 c-8 -8 -18 -15 -22 -15 -3 0 -1 7 6 15 7 8 17 15 22 15 5 0 3 -7 -6 -15z
m-57 -317 c-17 -33 -21 -36 -17 -13 2 17 16 34 26 35 1 0 -3 -10 -9 -22z
m3346 -108 c3 -6 -1 -7 -9 -4 -18 7 -21 14 -7 14 6 0 13 -4 16 -10z m903
-2305 c-3 -3 -9 2 -12 12 -6 14 -5 15 5 6 7 -7 10 -15 7 -18z m57 -15 c4 -6 1
-9 -7 -8 -7 2 -12 -3 -10 -10 1 -8 -2 -11 -8 -7 -8 5 -7 11 1 21 14 17 16 17
24 4z m-4760 -10 c-3 -5 -12 -10 -18 -10 -7 0 -6 4 3 10 19 12 23 12 15 0z
m4705 -4 c0 -3 -4 -8 -10 -11 -5 -3 -10 -1 -10 4 0 6 5 11 10 11 6 0 10 -2 10
-4z m110 -11 c0 -5 5 -3 11 5 8 12 9 10 4 -7 -5 -18 -2 -21 14 -18 14 3 18 -1
14 -12 -4 -10 -8 -11 -13 -3 -5 8 -9 7 -13 -4 -7 -18 -27 -22 -27 -5 0 5 5 7
10 4 6 -3 10 -1 10 4 0 6 -5 11 -11 11 -5 0 -7 5 -4 10 6 9 -8 14 -27 11 -5 0
-8 3 -8 8 0 6 9 9 20 8 11 -1 20 -6 20 -12z m-4830 -15 c0 -5 -4 -10 -10 -10
-5 0 -10 5 -10 10 0 6 5 10 10 10 6 0 10 -4 10 -10z m4807 -22 c-3 -8 -6 -5
-6 6 -1 11 2 17 5 13 3 -3 4 -12 1 -19z m-29 -8 c-7 -10 -14 -17 -17 -15 -4 4
18 35 25 35 2 0 -1 -9 -8 -20z m32 -14 c0 -2 -7 -7 -16 -10 -8 -3 -12 -2 -9 4
6 10 25 14 25 6z m-7 -43 c-4 -10 -9 -11 -19 -2 -18 15 -18 15 5 15 11 0 17
-5 14 -13z m-4823 -13 c0 -5 -2 -10 -4 -10 -3 0 -8 5 -11 10 -3 6 -1 10 4 10
6 0 11 -4 11 -10z m4820 -19 c0 -6 -4 -12 -8 -15 -5 -3 -9 1 -9 9 0 8 4 15 9
15 4 0 8 -4 8 -9z m-4825 -11 c-3 -5 -14 -10 -23 -9 -14 0 -13 2 3 9 27 11 27
11 20 0z m-1 -31 c-4 -7 -44 0 -44 7 0 2 11 3 24 2 14 -1 23 -5 20 -9z m-97
-14 c0 -8 -6 -15 -14 -15 -17 0 -17 17 0 23 6 3 12 6 13 6 0 1 1 -6 1 -14z
m4960 -10 c0 -8 -4 -12 -9 -9 -5 3 -6 10 -3 15 9 13 12 11 12 -6z m118 5 c3
-5 1 -10 -4 -10 -6 0 -11 5 -11 10 0 6 2 10 4 10 3 0 8 -4 11 -10z m-5022 -27
c-5 -12 -3 -14 7 -8 9 6 11 4 5 -4 -5 -9 -11 -9 -17 -3 -6 6 -7 15 -4 21 11
17 16 13 9 -6z m51 -11 c3 -5 -1 -9 -9 -9 -8 0 -12 4 -9 9 3 4 7 8 9 8 2 0 6
-4 9 -8z m4835 -26 c-3 -3 -11 5 -18 17 -13 21 -12 21 5 5 10 -10 16 -20 13
-22z m-4902 -8 c2 -18 0 -20 -7 -8 -12 18 -13 30 -2 30 4 0 9 -10 9 -22z
m4936 -3 c-3 -9 -8 -14 -10 -11 -3 3 -2 9 2 15 9 16 15 13 8 -4z m-5043 -51
c0 -10 -6 -14 -14 -11 -8 3 -17 2 -20 -4 -2 -5 -3 -4 -1 3 1 7 8 12 14 11 6
-2 11 2 11 7 0 6 2 10 5 10 3 0 5 -7 5 -16z m63 -1 c-5 -12 -3 -14 7 -8 9 6
11 4 5 -4 -5 -9 -11 -9 -17 -3 -6 6 -7 15 -4 21 11 17 16 13 9 -6z m4947 13
c0 -3 -4 -8 -10 -11 -5 -3 -10 -1 -10 4 0 6 5 11 10 11 6 0 10 -2 10 -4z m80
-8 c0 -6 -3 -8 -7 -5 -3 4 -13 1 -22 -6 -14 -11 -14 -10 -2 6 15 20 31 22 31
5z m0 -21 c0 -2 -10 -12 -22 -23 l-23 -19 19 23 c18 21 26 27 26 19z m-5030
-17 c12 -7 10 -9 -8 -7 -12 0 -22 5 -22 9 0 11 12 10 30 -2z m41 -13 c-10 -9
-11 -8 -5 6 3 10 9 15 12 12 3 -3 0 -11 -7 -18z m5039 8 c19 -22 8 -25 -12 -3
-10 10 -14 18 -9 18 5 0 14 -7 21 -15z m107 -46 c-1 -21 -12 -15 -12 7 0 7 -4
13 -9 13 -10 -1 -26 21 -26 35 0 5 11 -1 24 -13 14 -13 24 -31 23 -42z m-122
31 c4 -6 1 -9 -7 -8 -7 2 -12 -3 -10 -10 1 -8 -2 -11 -8 -7 -8 5 -7 11 1 21
14 17 16 17 24 4z m-5098 -22 c-3 -8 -6 -5 -6 6 -1 11 2 17 5 13 3 -3 4 -12 1
-19z m3 -25 c0 -3 -7 -2 -16 1 -12 5 -15 2 -10 -11 6 -14 4 -15 -5 -6 -14 14
-3 34 16 26 8 -3 15 -7 15 -10z m5100 -33 c0 -5 -2 -10 -4 -10 -3 0 -8 5 -11
10 -3 6 -1 10 4 10 6 0 11 -4 11 -10z m-5149 -33 c-10 -9 -11 -8 -5 6 3 10 9
15 12 12 3 -3 0 -11 -7 -18z m5189 13 c0 -5 -2 -10 -4 -10 -3 0 -8 5 -11 10
-3 6 -1 10 4 10 6 0 11 -4 11 -10z m24 -16 c3 -8 2 -12 -4 -9 -6 3 -10 10 -10
16 0 14 7 11 14 -7z m-5244 -9 c-6 -8 -8 -20 -4 -27 5 -10 4 -10 -6 -1 -11 10
-11 15 0 28 7 8 15 15 17 15 3 0 0 -7 -7 -15z m-65 -25 c3 -5 12 -7 19 -4 18
7 30 -12 15 -22 -8 -4 -9 -3 -5 4 4 7 2 12 -4 12 -6 0 -15 -11 -20 -25 -11
-29 -24 -34 -15 -6 4 14 0 23 -17 31 -21 10 -21 10 -6 -3 10 -8 14 -17 10 -21
-12 -13 -8 -31 8 -38 12 -5 12 -7 -3 -7 -10 -1 -15 -5 -12 -11 11 -18 14 -50
5 -50 -5 0 -9 8 -9 18 0 16 -7 54 -11 60 -2 1 -3 10 -4 20 -1 9 -5 22 -9 28
-4 7 0 15 9 18 8 3 12 11 8 17 -5 8 -1 8 14 0 12 -6 24 -15 27 -21z m5452 22
c7 6 16 8 19 5 3 -3 -3 -10 -14 -16 -16 -8 -23 -7 -33 7 -11 14 -11 15 1 5 10
-9 17 -10 27 -1z m-5350 -17 c0 -8 -4 -12 -9 -9 -4 3 -8 9 -8 15 0 5 4 9 8 9
5 0 9 -7 9 -15z m5198 -15 c3 -5 1 -10 -4 -10 -6 0 -11 5 -11 10 0 6 2 10 4
10 3 0 8 -4 11 -10z m36 -7 c13 -16 12 -17 -3 -4 -10 7 -18 15 -18 17 0 8 8 3
21 -13z m49 -35 c0 -5 -4 -8 -10 -8 -5 0 -9 3 -8 8 1 4 -4 18 -11 32 l-12 25
20 -25 c11 -14 21 -28 21 -32z m85 26 c6 0 16 -2 24 -2 7 -1 11 -8 8 -16 -6
-16 26 -50 36 -39 4 3 7 1 7 -5 0 -17 -10 -15 -32 5 -18 16 -103 28 -93 13 2
-3 -2 -7 -10 -7 -8 0 -15 4 -15 8 0 11 27 19 49 14 11 -2 22 3 25 10 3 10 -2
12 -20 9 -13 -2 -24 -1 -24 4 0 15 12 22 24 14 6 -3 16 -7 21 -8z m-5389 -10
c-1 -8 -6 -17 -12 -21 -5 -4 -6 -4 -2 1 4 5 3 14 -2 21 -7 8 -5 12 4 12 8 0
13 -6 12 -13z m-65 -27 c-10 -9 -11 -8 -5 6 3 10 9 15 12 12 3 -3 0 -11 -7
-18z m5309 13 c0 -5 -2 -10 -4 -10 -3 0 -8 5 -11 10 -3 6 -1 10 4 10 6 0 11
-4 11 -10z m35 -29 c3 -5 2 -12 -3 -15 -5 -3 -9 1 -9 9 0 17 3 19 12 6z m105
-62 c0 -5 6 -7 13 -3 6 4 8 3 4 -1 -10 -12 -39 -16 -32 -5 3 5 -1 11 -7 13 -8
3 -6 6 5 6 9 1 17 -4 17 -10z m-5460 -23 c0 -3 -4 -8 -10 -11 -5 -3 -10 -1
-10 4 0 6 5 11 10 11 6 0 10 -2 10 -4z m5507 -28 c-3 -8 -6 -5 -6 6 -1 11 2
17 5 13 3 -3 4 -12 1 -19z m-5530 -2 c2 -2 -9 -3 -26 -2 -16 0 -27 4 -25 8 4
7 43 3 51 -6z m5478 -4 c-3 -3 -11 0 -18 7 -9 10 -8 11 6 5 10 -3 15 -9 12
-12z m191 -27 c-3 -8 -1 -16 5 -19 5 -2 5 -4 -1 -3 -7 2 -10 5 -8 9 2 3 -6 16
-17 28 l-20 23 23 -12 c13 -7 21 -18 18 -26z m-152 9 c3 -8 2 -12 -4 -9 -6 3
-10 10 -10 16 0 14 7 11 14 -7z m-5687 -29 c0 -8 -4 -12 -9 -9 -4 3 -8 9 -8
15 0 5 4 9 8 9 5 0 9 -7 9 -15z m93 -39 c0 -2 -9 -6 -20 -9 -11 -3 -18 -1 -14
4 5 9 34 13 34 5z m5814 -47 c-3 -5 0 -8 8 -7 7 2 13 -4 13 -12 1 -30 15 -42
33 -28 10 7 14 8 10 4 -4 -5 -2 -16 5 -25 10 -14 10 -14 -3 -4 -10 8 -21 9
-30 3 -21 -14 -30 -12 -30 5 0 8 -3 15 -7 15 -5 0 -14 4 -21 9 -12 7 -12 12
-1 29 11 17 11 24 1 34 -6 6 -12 17 -12 23 1 5 9 -1 20 -14 11 -12 17 -27 14
-32z m-5859 21 c3 -5 1 -10 -4 -10 -6 0 -11 5 -11 10 0 6 2 10 4 10 3 0 8 -4
11 -10z m39 2 c3 -5 -1 -9 -9 -9 -8 0 -12 4 -9 9 3 4 7 8 9 8 2 0 6 -4 9 -8z
m5841 -2 c3 -5 1 -10 -4 -10 -6 0 -11 5 -11 10 0 6 2 10 4 10 3 0 8 -4 11 -10z
m-5975 -19 c0 -5 -9 -19 -20 -32 l-20 -24 17 32 c19 34 23 39 23 24z m141 -18
c13 -16 12 -17 -3 -4 -10 7 -18 15 -18 17 0 8 8 3 21 -13z m-90 -36 c-10 -9
-11 -8 -5 6 3 10 9 15 12 12 3 -3 0 -11 -7 -18z m5887 -22 c-3 -3 -9 2 -12 12
-6 14 -5 15 5 6 7 -7 10 -15 7 -18z"/>
<path d="M4351 6537 c2 -1 13 -9 24 -17 19 -14 19 -14 6 3 -7 9 -18 17 -24 17
-6 0 -8 -1 -6 -3z"/>
<path d="M10088 6184 c-4 -5 5 -19 18 -31 13 -12 24 -18 24 -13 0 5 -4 11 -10
15 -5 3 -7 13 -4 23 5 13 4 14 -4 3 -8 -11 -10 -11 -14 0 -2 7 -7 9 -10 3z"/>
<path d="M4628 7061 c3 -9 1 -12 -6 -7 -18 11 -14 0 5 -15 11 -10 14 -10 9 -1
-4 6 -3 12 2 12 6 0 12 6 15 14 4 10 0 14 -12 13 -12 -1 -17 -6 -13 -16z"/>
<path d="M4590 7025 c0 -8 4 -15 8 -15 5 0 9 7 9 15 0 8 -4 15 -9 15 -4 0 -8
-7 -8 -15z"/>
<path d="M9623 7019 c9 -6 14 -15 11 -21 -4 -7 -2 -8 5 -4 14 9 -3 36 -23 36
-6 0 -3 -5 7 -11z"/>
<path d="M9590 7010 c0 -5 5 -10 11 -10 5 0 7 5 4 10 -3 6 -8 10 -11 10 -2 0
-4 -4 -4 -10z"/>
<path d="M9622 6957 c10 -8 16 -16 13 -19 -3 -2 2 -5 10 -5 24 0 18 13 -12 26
-24 10 -26 9 -11 -2z"/>
<path d="M9580 6951 c-8 -6 -18 -7 -22 -5 -13 8 -8 -20 6 -39 13 -17 16 -17
43 -3 28 15 28 16 6 22 -13 3 -23 11 -23 16 0 5 5 6 12 2 7 -4 8 -3 4 4 -9 14
-7 14 -26 3z m17 -43 c-13 -8 -39 10 -31 23 3 5 14 3 24 -3 13 -9 16 -14 7
-20z"/>
<path d="M9653 6912 c-10 -7 -10 -12 0 -27 11 -14 16 -15 22 -5 6 9 4 11 -5 5
-10 -6 -12 -3 -8 13 4 12 5 22 5 22 -1 0 -8 -4 -14 -8z"/>
<path d="M9589 6888 c-7 -23 -5 -38 5 -38 6 0 12 9 13 20 1 11 -2 20 -8 20 -5
0 -9 -1 -10 -2z"/>
<path d="M9710 6876 c0 -2 8 -10 18 -17 15 -13 16 -12 3 4 -13 16 -21 21 -21
13z"/>
<path d="M4473 6853 c0 -9 4 -10 14 -2 7 6 13 12 13 14 0 1 -6 2 -13 2 -8 0
-14 -6 -14 -14z"/>
<path d="M4434 6818 c-4 -7 -4 -10 1 -6 4 4 15 2 24 -5 14 -11 14 -10 2 6 -16
20 -18 21 -27 5z"/>
<path d="M9719 6813 c-13 -16 -12 -17 4 -4 16 13 21 21 13 21 -2 0 -10 -8 -17
-17z"/>
<path d="M4470 6780 c0 -5 5 -10 10 -10 6 0 10 5 10 10 0 6 -4 10 -10 10 -5 0
-10 -4 -10 -10z"/>
<path d="M9615 6771 c-3 -5 2 -11 10 -15 8 -3 17 -1 20 3 3 5 -2 11 -10 15 -8
3 -17 1 -20 -3z"/>
<path d="M9730 6771 c0 -6 4 -13 10 -16 6 -3 7 1 4 9 -7 18 -14 21 -14 7z"/>
<path d="M4410 6746 c0 -2 7 -7 16 -10 8 -3 12 -2 9 4 -6 10 -25 14 -25 6z"/>
<path d="M9790 6716 c0 -2 8 -10 18 -17 15 -13 16 -12 3 4 -13 16 -21 21 -21
13z"/>
<path d="M9750 6701 c0 -10 19 -25 25 -20 1 2 -3 10 -11 17 -8 7 -14 8 -14 3z"/>
<path d="M4375 6680 c-3 -5 -1 -10 4 -10 6 0 11 5 11 10 0 6 -2 10 -4 10 -3 0
-8 -4 -11 -10z"/>
<path d="M4465 6660 c-10 -11 -13 -20 -7 -20 6 0 16 9 22 20 6 11 9 20 7 20
-2 0 -12 -9 -22 -20z"/>
<path d="M9690 6663 c0 -6 7 -16 15 -23 8 -7 12 -17 8 -23 -4 -6 -1 -7 6 -3 9
6 8 13 -6 29 -10 12 -19 24 -20 26 -2 2 -3 0 -3 -6z"/>
<path d="M4373 6623 c0 -9 7 -11 21 -7 18 6 19 5 8 -9 -8 -9 -19 -14 -27 -11
-17 7 -29 -12 -14 -22 8 -5 9 -3 4 6 -5 8 -3 11 6 8 8 -3 14 -10 14 -15 0 -20
14 -26 30 -13 24 20 10 64 -23 72 -12 3 -19 0 -19 -9z m42 -30 c-2 -10 -4 -21
-4 -25 -1 -5 -5 -8 -10 -8 -10 0 -9 19 2 38 11 17 16 15 12 -5z"/>
<path d="M4310 6606 c0 -2 7 -7 16 -10 8 -3 12 -2 9 4 -6 10 -25 14 -25 6z"/>
<path d="M9866 6602 c-3 -5 1 -9 9 -9 8 0 12 4 9 9 -3 4 -7 8 -9 8 -2 0 -6 -4
-9 -8z"/>
<path d="M9900 6566 c0 -2 8 -10 18 -17 15 -13 16 -12 3 4 -13 16 -21 21 -21
13z"/>
<path d="M9875 6539 c-5 -8 -5 -11 0 -7 4 4 13 1 19 -7 8 -11 15 -12 26 -4 13
9 13 10 0 6 -8 -2 -20 3 -26 11 -9 13 -12 13 -19 1z"/>
<path d="M4280 6510 c-8 -16 -8 -20 2 -18 7 2 11 -4 9 -12 -2 -8 -3 -21 -2
-27 1 -7 2 -22 3 -34 2 -18 4 -18 14 -5 6 9 15 12 20 8 4 -4 3 0 -4 9 -6 9 -9
19 -5 23 4 4 -1 4 -12 0 -16 -6 -18 -5 -9 7 14 17 14 50 1 42 -6 -4 -8 0 -4
10 9 24 0 21 -13 -3z"/>
<path d="M9926 6498 c3 -4 9 -8 15 -8 5 0 9 4 9 8 0 5 -7 9 -15 9 -8 0 -12 -4
-9 -9z"/>
<path d="M9910 6480 c0 -6 7 -10 15 -10 8 0 15 2 15 4 0 2 -7 6 -15 10 -8 3
-15 1 -15 -4z"/>
<path d="M4253 6458 c3 -9 1 -19 -6 -22 -9 -3 -9 -5 0 -5 18 -1 23 13 11 29
-8 12 -9 12 -5 -2z"/>
<path d="M9993 6445 c0 -8 4 -12 9 -9 5 3 6 10 3 15 -9 13 -12 11 -12 -6z"/>
<path d="M9871 6420 c20 -30 38 -37 35 -13 -2 10 -7 18 -12 18 -5 0 -16 5 -24
10 -13 8 -13 5 1 -15z"/>
<path d="M4193 6406 c0 -15 22 -15 34 0 4 5 4 6 -1 2 -5 -4 -14 -3 -21 2 -8 7
-12 5 -12 -4z"/>
<path d="M4262 6337 c-21 -22 -21 -23 -2 -23 11 0 23 9 26 19 9 28 0 30 -24 4z"/>
<path d="M10115 6300 c2 -27 10 -33 12 -10 1 11 -2 22 -6 24 -4 3 -7 -4 -6
-14z"/>
<path d="M4039 6253 c-13 -16 -12 -17 4 -4 9 7 17 15 17 17 0 8 -8 3 -21 -13z"/>
<path d="M4109 6243 c-13 -16 -12 -17 4 -4 16 13 21 21 13 21 -2 0 -10 -8 -17
-17z"/>
<path d="M4056 6202 c-3 -5 1 -9 9 -9 8 0 12 4 9 9 -3 4 -7 8 -9 8 -2 0 -6 -4
-9 -8z"/>
<path d="M10193 6176 c0 -11 1 -15 4 -8 3 6 9 10 14 6 5 -3 9 -1 9 4 0 21 -26
19 -27 -2z"/>
<path d="M4169 6185 c-1 -3 -2 -8 -3 -12 -1 -5 -5 -14 -10 -22 -6 -10 -5 -12
2 -7 18 11 35 46 22 46 -5 0 -11 -2 -11 -5z"/>
<path d="M10215 6129 c-4 -6 -5 -12 -2 -15 2 -3 7 2 10 11 7 17 1 20 -8 4z"/>
<path d="M7095 3546 c-64 -30 -92 -58 -119 -115 -20 -44 -21 -60 -21 -426 l0
-380 27 -55 c41 -82 122 -129 223 -129 121 -1 199 41 243 129 l27 55 2 361 c3
388 0 418 -49 490 -13 18 -45 46 -73 61 -71 39 -188 43 -260 9z m180 -161 c14
-13 26 -34 26 -47 6 -108 3 -650 -3 -676 -18 -66 -111 -84 -152 -29 -20 27
-21 40 -21 355 -1 180 3 341 7 357 17 65 96 88 143 40z"/>
<path d="M11395 3557 c-58 -19 -91 -44 -117 -85 -67 -107 -62 -267 11 -380 17
-26 77 -93 134 -148 108 -106 137 -150 145 -221 10 -93 -53 -147 -132 -112
-31 15 -46 56 -46 128 l0 57 -77 -1 c-43 0 -81 -3 -84 -8 -13 -18 1 -159 21
-204 45 -102 106 -138 235 -138 104 0 152 19 203 81 73 88 75 264 6 382 -15
24 -75 92 -134 151 -60 58 -118 126 -131 150 -34 66 -26 166 15 193 6 4 28 8
49 8 42 0 76 -27 79 -62 1 -13 2 -30 4 -38 1 -8 2 -25 3 -38 1 -22 4 -23 84
-20 l82 3 -2 48 c-9 173 -84 256 -238 264 -40 1 -87 -3 -110 -10z"/>
<path d="M14057 3554 c-105 -33 -159 -130 -153 -278 4 -122 32 -173 177 -319
64 -65 125 -135 135 -155 12 -23 18 -60 19 -101 0 -56 -3 -65 -24 -79 -29 -20
-48 -24 -86 -17 -41 7 -61 45 -64 120 -2 33 -5 62 -8 65 -2 3 -38 5 -79 5 -58
0 -74 -3 -75 -15 -8 -84 5 -171 33 -225 43 -80 134 -122 248 -112 149 12 222
92 234 255 9 125 -35 214 -174 352 -150 147 -164 171 -162 270 2 55 35 90 85
90 57 -1 87 -43 87 -121 l0 -39 78 0 c43 0 81 2 83 5 3 2 2 38 -2 78 -10 109
-46 169 -124 210 -52 27 -163 32 -228 11z"/>
<path d="M459 3558 c-1 -2 -2 -252 -3 -555 l-2 -553 88 0 88 0 0 235 0 235 23
1 c80 3 158 1 164 -4 3 -4 6 -110 6 -237 l-1 -230 89 0 89 0 0 555 0 555 -89
0 -89 0 0 -217 c0 -120 -1 -228 -1 -240 -1 -22 -4 -23 -96 -23 l-95 0 0 240 0
240 -85 0 c-47 0 -86 -1 -86 -2z"/>
<path d="M1139 3558 c-1 -2 -2 -252 -3 -555 l-1 -553 237 0 238 0 0 80 0 80
-150 0 -150 0 0 160 0 160 43 1 c23 0 77 0 120 0 l77 -1 0 80 0 80 -120 0
-120 0 0 155 0 155 78 1 c42 0 110 0 150 0 l72 -1 0 80 0 80 -235 0 c-129 0
-236 -1 -236 -2z"/>
<path d="M1715 3006 l0 -556 87 0 88 0 0 205 c0 157 3 205 13 205 168 5 229
25 278 93 37 52 49 115 49 266 0 187 -30 264 -123 313 -38 20 -60 23 -217 26
l-175 4 0 -556z m309 381 c9 -7 20 -28 25 -47 8 -42 7 -246 -3 -276 -9 -28
-47 -44 -106 -44 l-50 0 0 190 0 190 58 0 c32 0 66 -6 76 -13z"/>
<path d="M2315 3005 l0 -555 87 0 88 0 0 235 0 235 33 1 c150 4 157 4 158 -11
0 -8 1 -115 1 -237 l0 -223 89 0 89 0 0 555 0 555 -89 0 -89 0 0 -227 c0 -126
-1 -234 -1 -240 -1 -10 -27 -13 -96 -13 l-95 0 0 240 0 240 -88 0 -87 0 0
-555z"/>
<path d="M2970 3480 l0 -80 155 0 c85 0 155 -3 155 -6 0 -5 -183 -452 -225
-549 -90 -209 -100 -240 -100 -315 l1 -75 255 -3 255 -2 0 77 -1 78 -163 3
c-89 1 -162 4 -162 6 0 2 73 179 161 392 162 388 162 389 164 472 l1 82 -248
0 -248 0 0 -80z"/>
<path d="M3579 3553 c-1 -5 -2 -254 -3 -555 l-1 -548 87 0 88 0 0 555 0 555
-85 0 c-47 0 -86 -3 -86 -7z"/>
<path d="M3879 3553 c-1 -4 -2 -255 -3 -556 l-1 -548 170 2 c227 1 284 22 338
124 18 33 22 61 24 167 3 109 0 135 -18 182 -18 50 -58 97 -91 108 -8 3 -2 14
18 31 53 45 71 98 73 212 3 158 -40 240 -140 269 -51 15 -368 23 -370 9z m296
-159 c30 -12 42 -56 41 -148 -2 -83 -3 -90 -29 -112 -22 -19 -40 -24 -83 -24
l-54 0 0 145 0 145 54 0 c30 0 62 -3 71 -6z m9 -455 c35 -16 48 -57 50 -151 4
-159 -9 -178 -114 -178 l-70 0 0 170 0 170 55 0 c30 0 65 -5 79 -11z"/>
<path d="M4639 3543 c0 -10 -2 -29 -5 -43 -4 -25 -22 -141 -29 -190 -4 -27
-44 -270 -70 -435 -9 -55 -19 -113 -21 -130 -3 -16 -11 -68 -19 -115 -8 -47
-17 -106 -20 -132 l-7 -48 79 0 79 0 13 83 c20 129 7 117 127 117 57 0 104 -3
105 -7 0 -5 2 -17 4 -28 2 -11 7 -38 10 -60 7 -56 16 -99 19 -103 2 -1 41 -2
88 0 l84 3 -18 110 c-10 61 -20 124 -22 140 -18 114 -37 233 -40 251 -2 12 -7
45 -11 75 -4 30 -8 56 -10 59 -2 3 -6 28 -9 55 -4 28 -9 57 -11 65 -2 8 -6 33
-10 55 -9 62 -34 226 -40 263 l-6 32 -129 0 c-117 0 -130 -2 -131 -17z m147
-333 c9 -63 18 -127 20 -142 2 -16 8 -56 13 -90 6 -35 13 -85 17 -113 3 -27 8
-53 11 -57 2 -5 -35 -8 -82 -8 l-87 0 6 28 c3 15 8 47 11 72 3 25 10 70 15
100 5 30 13 80 16 110 3 30 7 57 9 60 2 3 7 32 10 65 4 32 9 66 10 74 2 9 4
21 5 26 3 19 9 -10 26 -125z"/>
<path d="M5159 3558 c-1 -2 -2 -252 -3 -555 l-1 -553 87 0 88 0 0 235 0 235
33 1 c150 4 157 4 158 -11 0 -8 1 -115 1 -237 l1 -223 89 0 88 0 0 555 0 555
-89 0 -88 0 -1 -222 c0 -123 -1 -231 -1 -240 -1 -16 -13 -18 -96 -18 l-95 0 0
240 0 240 -85 0 c-47 0 -86 -1 -86 -2z"/>
<path d="M6034 3533 c7 -34 13 -89 21 -171 4 -35 8 -71 10 -81 2 -9 6 -53 10
-96 3 -44 8 -89 10 -100 2 -11 7 -47 10 -80 5 -55 10 -103 20 -180 4 -30 13
-111 20 -175 2 -19 6 -66 10 -105 4 -38 8 -76 10 -82 3 -10 37 -13 125 -13
l120 0 1 28 c0 15 2 36 3 47 2 17 12 104 21 200 9 84 18 162 20 175 2 8 4 32
4 53 1 52 17 47 20 -7 1 -25 3 -53 5 -63 2 -10 7 -47 10 -83 9 -88 17 -161 31
-288 l7 -63 116 3 c96 3 116 6 117 19 3 17 13 109 21 179 2 25 7 61 9 80 4 33
24 215 30 270 5 57 17 157 20 180 2 14 6 54 10 90 3 36 8 76 10 90 2 14 7 52
10 85 3 33 8 72 9 88 l3 27 -78 0 -79 0 -1 -37 c0 -21 -2 -49 -4 -63 -5 -33
-23 -209 -30 -285 -3 -33 -8 -76 -10 -95 -3 -19 -7 -64 -10 -100 -4 -36 -8
-76 -10 -90 -2 -14 -7 -61 -10 -105 -6 -83 -14 -112 -16 -54 0 19 -2 41 -4 50
-1 10 -6 52 -10 95 -3 42 -8 91 -10 108 -2 17 -7 60 -10 96 -3 36 -8 81 -10
100 -2 19 -7 64 -10 100 -6 72 -10 112 -20 213 l-7 67 -84 0 c-67 0 -84 -3
-85 -15 -1 -8 -2 -18 -3 -22 -1 -5 -6 -53 -10 -108 -5 -55 -9 -107 -11 -115
-1 -8 -6 -51 -9 -95 -4 -44 -9 -91 -11 -105 -2 -14 -6 -59 -10 -100 -3 -41 -8
-91 -10 -110 -2 -19 -6 -66 -10 -105 -6 -76 -15 -98 -16 -44 0 19 -2 43 -4 54
-1 11 -6 52 -9 90 -4 39 -9 84 -11 100 -2 17 -7 64 -11 105 -3 41 -8 83 -9 92
-2 9 -6 45 -10 80 -3 35 -8 79 -10 98 -10 77 -17 146 -19 170 -1 24 -3 25 -89
28 l-89 3 6 -28z"/>
<path d="M7595 3005 l0 -555 87 0 88 0 0 226 0 227 62 -6 c99 -9 108 -30 108
-247 0 -76 3 -152 6 -169 l7 -31 89 0 90 0 -7 28 c-4 15 -9 99 -10 187 -3 190
-13 235 -65 288 l-39 38 34 30 c49 43 67 106 67 237 1 130 -12 181 -59 233
-51 56 -95 66 -293 68 l-165 2 0 -556z m314 373 c28 -29 34 -71 28 -179 -3
-73 -8 -95 -24 -111 -22 -22 -73 -35 -115 -30 l-28 3 0 170 0 169 60 0 c48 0
63 -4 79 -22z"/>
<path d="M8225 3005 l0 -557 185 4 c205 4 239 13 293 78 53 62 58 104 57 478
-1 370 -5 402 -55 468 -52 68 -87 78 -295 82 l-185 4 0 -557z m336 369 l24
-25 0 -344 0 -344 -24 -25 c-22 -23 -32 -26 -93 -26 l-68 0 0 395 0 395 68 0
c61 0 71 -3 93 -26z"/>
<path d="M9110 3005 l0 -555 75 0 c53 0 75 4 76 13 0 6 1 173 1 370 0 197 2
357 4 355 3 -4 34 -186 99 -578 2 -14 9 -55 16 -92 l11 -68 84 0 c80 0 84 1
85 23 0 12 2 29 4 37 1 8 8 51 15 95 6 44 13 91 15 105 3 14 19 124 36 245 18
121 35 223 38 227 3 4 6 -159 6 -363 l0 -369 82 0 83 0 0 555 0 555 -120 0
c-137 0 -120 14 -140 -120 -7 -41 -14 -88 -17 -105 -2 -16 -6 -43 -8 -58 -11
-78 -16 -113 -20 -127 -2 -8 -7 -37 -10 -65 -17 -139 -43 -288 -48 -275 -3 8
-9 33 -12 55 -3 22 -10 69 -17 105 -6 36 -11 72 -13 80 -1 13 -9 58 -20 120
-1 8 -6 40 -11 70 -4 30 -8 57 -9 60 -1 3 -5 28 -9 55 -4 28 -10 64 -13 80 -3
17 -8 50 -11 75 l-7 45 -123 3 -122 3 0 -556z"/>
<path d="M9975 3005 l-1 -555 88 0 88 0 0 555 0 555 -88 0 -87 0 0 -555z"/>
<path d="M10270 3005 l0 -555 80 0 80 0 -1 381 c0 210 2 383 4 385 2 2 39
-125 81 -283 43 -159 90 -332 105 -385 l26 -98 90 0 90 0 0 555 0 555 -77 0
-78 0 -1 -322 c-1 -300 -2 -319 -16 -273 -32 111 -45 157 -88 320 -25 94 -53
194 -61 223 l-15 52 -109 0 -110 0 0 -555z"/>
<path d="M10959 3558 c-1 -2 -2 -252 -3 -555 l-1 -553 87 0 88 0 0 555 0 555
-85 0 c-47 0 -86 -1 -86 -2z"/>
<path d="M11793 3483 l2 -78 90 -5 90 -5 0 -472 -1 -473 88 0 88 0 0 475 c0
445 1 475 18 476 9 0 49 0 89 0 l72 -1 3 38 c2 20 1 56 -1 80 l-3 42 -269 0
-269 0 3 -77z"/>
<path d="M12415 3005 l0 -555 87 0 88 0 0 226 0 227 60 -6 c98 -9 107 -28 109
-227 1 -80 4 -154 6 -165 2 -11 4 -28 4 -37 1 -16 12 -18 92 -18 l91 0 -8 33
c-3 17 -8 107 -9 198 -3 186 -15 232 -73 281 l-31 26 39 41 c51 53 62 98 62
241 0 92 -4 124 -20 160 -46 106 -102 128 -332 130 l-165 1 0 -556z m314 376
c25 -25 33 -83 28 -190 -4 -66 -9 -87 -25 -103 -21 -21 -80 -36 -119 -30 -23
3 -23 5 -23 173 l0 169 60 0 c46 0 65 -5 79 -19z"/>
<path d="M13045 3005 l0 -555 87 0 88 0 0 555 0 555 -88 0 -87 0 0 -555z"/>
<path d="M13349 3558 c-1 -2 -2 -252 -3 -555 l-1 -553 237 0 238 0 0 80 0 80
-150 0 -150 0 0 160 0 160 68 1 c37 0 90 1 117 2 l50 2 3 78 3 77 -121 0 -120
0 0 155 0 155 150 0 150 0 0 80 0 80 -235 0 c-129 0 -236 -1 -236 -2z"/>
<path d="M4448 1935 c-2 -3 -18 -5 -36 -7 -18 -1 -32 -5 -32 -9 0 -3 -8 -6
-17 -5 -10 0 -40 -6 -68 -13 -77 -22 -118 -78 -120 -166 0 -18 8 -20 65 -23
66 -3 77 12 15 20 l-30 4 30 14 c33 14 49 19 80 25 11 2 20 4 20 5 0 1 14 4
30 6 47 8 70 12 70 14 0 8 171 5 176 -3 6 -8 -62 -106 -137 -200 -8 -9 -14
-20 -14 -23 0 -3 -13 -24 -28 -47 -67 -98 -101 -210 -69 -223 8 -3 24 -1 35 5
27 14 70 90 70 122 0 14 11 44 26 67 14 23 26 44 26 46 0 8 133 220 147 234
25 26 4 120 -34 147 -15 11 -195 20 -205 10z"/>
<path d="M7485 1898 c-66 -22 -127 -46 -135 -53 -8 -8 -19 -14 -25 -15 -20 -4
-45 -27 -60 -56 -18 -35 -20 -91 -2 -97 6 -2 41 12 77 31 77 42 79 43 63 49
-20 7 -15 20 10 28 12 4 24 8 27 9 143 63 231 86 255 66 8 -6 11 -19 8 -28 -8
-21 -61 -99 -82 -122 -9 -9 -36 -40 -61 -68 -25 -29 -53 -52 -62 -52 -9 0 -19
-4 -23 -10 -3 -5 -12 -7 -20 -4 -8 3 -20 2 -27 -2 -7 -5 -22 -7 -33 -6 -24 3
-36 -5 -52 -35 -25 -44 -12 -63 43 -63 30 0 30 -8 0 -41 -31 -33 -41 -66 -26
-84 16 -20 22 -15 85 71 49 65 59 74 88 74 17 0 50 5 72 10 22 5 41 7 43 6 2
-2 -6 -24 -18 -49 -12 -25 -22 -63 -23 -84 -2 -33 1 -38 18 -35 11 2 30 10 43
18 17 11 21 21 17 44 -3 20 2 45 15 71 20 39 22 40 64 36 38 -4 45 -2 57 19 7
13 16 24 21 24 4 0 8 5 8 11 0 6 7 17 15 25 21 22 9 40 -28 39 -17 -1 -35 0
-39 2 -7 4 93 163 120 191 6 7 12 22 12 33 0 10 0 22 1 26 2 23 -22 8 -47 -29
-16 -24 -34 -47 -40 -53 -6 -5 -20 -26 -32 -45 -12 -19 -33 -48 -47 -64 -14
-16 -25 -35 -25 -43 0 -7 -6 -13 -12 -14 -7 0 -22 -2 -33 -5 -49 -10 -85 -13
-85 -6 0 4 14 22 31 40 42 45 99 120 99 131 0 5 5 11 10 13 14 4 21 100 9 119
-6 10 -30 14 -81 15 -60 1 -94 -5 -193 -38z"/>
<path d="M10127 1933 c-5 -4 -30 -10 -87 -19 -19 -4 -39 -7 -45 -8 -38 -8
-104 -60 -109 -88 -2 -7 -6 -20 -10 -30 -4 -9 -6 -29 -4 -45 3 -27 5 -28 68
-31 35 -2 61 1 56 5 -8 8 -13 10 -46 12 -50 3 3 31 90 48 41 8 55 11 55 13 0
4 61 10 148 15 59 3 87 1 87 -6 0 -12 -34 -62 -62 -93 -10 -11 -18 -23 -18
-27 0 -3 -13 -22 -30 -40 -16 -19 -30 -39 -30 -46 0 -6 -4 -13 -8 -15 -8 -3
-36 -48 -77 -123 -12 -22 -27 -59 -35 -83 -12 -38 -12 -45 3 -59 14 -14 20
-15 41 -4 14 8 30 27 37 42 6 16 16 29 22 29 6 0 7 3 4 7 -4 3 -1 13 6 21 9
11 9 16 1 19 -8 3 2 30 26 74 53 95 142 241 158 258 25 26 31 57 18 100 -20
70 -33 76 -151 77 -57 1 -106 0 -108 -3z"/>
<path d="M11389 1925 c-19 -7 -54 -22 -78 -34 -23 -12 -48 -20 -54 -17 -9 3
-9 5 1 5 6 1 12 8 12 16 0 11 -6 10 -27 -8 -51 -43 -83 -76 -83 -87 0 -5 -4
-10 -9 -10 -13 0 -34 -68 -25 -82 4 -7 41 8 54 22 12 13 182 91 210 96 25 6
30 3 30 -13 0 -25 -71 -162 -139 -268 -28 -44 -58 -95 -67 -113 -14 -32 -14
-35 8 -53 l22 -20 26 28 c14 15 53 64 85 108 73 97 247 275 269 275 17 0 19
-25 3 -45 -30 -39 -87 -128 -87 -135 0 -6 -4 -10 -9 -10 -5 0 -13 -10 -17 -22
-4 -13 -10 -25 -14 -28 -11 -8 -58 -132 -63 -165 -2 -19 3 -36 14 -49 32 -34
99 -6 191 82 24 23 47 42 52 42 5 0 6 -3 3 -6 -13 -13 36 -84 57 -84 12 0 44
25 78 60 53 56 79 76 61 48 -9 -16 -14 -34 -17 -76 -6 -70 58 -58 139 26 27
28 53 48 57 46 4 -3 8 -1 8 4 0 6 7 13 16 16 8 3 13 2 10 -3 -12 -20 -29 -68
-31 -88 -3 -32 31 -66 58 -57 39 12 72 32 87 53 8 12 18 21 23 21 4 0 19 12
32 28 19 21 24 23 25 10 0 -10 8 -33 17 -53 27 -57 81 -48 151 28 24 26 43 35
41 20 -6 -35 40 -83 78 -83 27 0 77 28 94 53 3 5 18 10 33 11 14 2 35 11 45
20 17 16 19 15 25 -15 12 -64 42 -76 69 -30 24 42 149 170 140 146 -3 -11 -14
-31 -23 -45 -35 -54 -55 -139 -32 -141 4 0 17 -2 29 -5 21 -4 61 23 110 73 12
13 30 23 39 23 10 0 14 -3 11 -6 -10 -10 32 -63 61 -77 45 -23 100 -2 176 66
32 29 46 48 41 56 -4 8 -10 9 -14 4 -13 -21 -92 -63 -118 -63 l-27 0 24 17
c81 56 107 117 85 203 -10 42 -13 55 -14 63 -1 4 -10 7 -20 7 -20 0 -34 -14
-37 -37 -3 -20 -151 -176 -208 -218 -44 -33 -62 -39 -70 -20 -4 12 28 84 43
95 4 3 17 18 29 34 23 30 28 61 12 86 -15 25 -72 -13 -160 -107 -42 -46 -80
-83 -83 -83 -20 0 23 77 66 118 27 26 22 52 -11 52 -34 0 -47 -13 -99 -99 -22
-35 -49 -68 -61 -72 -17 -7 -20 -5 -15 9 3 9 9 22 12 27 3 6 6 13 7 18 1 4 2
8 4 10 1 1 4 21 6 45 3 32 1 42 -10 42 -8 0 -12 7 -10 18 3 9 -3 22 -14 28
-46 29 -172 -54 -209 -138 -12 -26 -32 -48 -59 -64 -46 -27 -60 -29 -78 -11
-27 26 -22 42 27 92 76 77 85 127 20 111 -29 -8 -115 -94 -107 -108 3 -4 0 -8
-5 -8 -6 0 -11 -11 -11 -24 0 -17 -14 -33 -53 -60 -53 -37 -86 -46 -88 -23 -3
36 5 68 33 125 23 45 37 62 52 63 12 1 26 2 31 4 6 1 16 3 23 3 6 1 12 7 12
14 0 6 8 20 17 30 22 24 26 51 8 44 -21 -8 -31 15 -11 26 9 5 16 16 16 23 0 8
5 15 11 15 5 0 8 4 4 9 -10 18 -57 4 -81 -24 -13 -15 -24 -31 -24 -35 0 -4
-23 -10 -50 -12 -34 -4 -59 -13 -75 -28 -14 -13 -23 -25 -21 -28 3 -2 1 -15
-4 -28 -8 -19 -6 -22 8 -17 9 3 23 10 30 16 8 6 12 6 12 -2 0 -7 5 -9 10 -6
24 15 -3 -38 -37 -73 -7 -7 -13 -17 -13 -21 0 -11 -126 -91 -144 -91 -9 0 -19
12 -22 26 -5 19 1 36 24 68 29 40 35 66 19 82 -4 4 0 15 9 25 13 14 13 20 2
38 -13 21 -23 21 -84 3 -43 -13 -136 -74 -174 -114 -17 -17 -41 -49 -52 -70
-12 -21 -25 -38 -28 -38 -4 0 -19 -11 -34 -25 -14 -13 -26 -22 -26 -19 0 3 -8
0 -18 -5 -40 -21 -58 21 -34 79 14 35 104 173 128 197 25 26 73 120 76 149 1
16 -6 41 -16 56 -18 28 -18 28 -49 10 -43 -23 -48 -28 -125 -103 -61 -61 -100
-102 -212 -229 -22 -25 -40 -42 -40 -38 0 4 6 13 13 20 7 7 23 34 37 61 14 26
29 47 33 47 5 0 5 5 2 10 -3 6 -2 10 3 10 14 0 112 195 112 223 0 45 -50 58
-121 32z m520 -377 c-59 -71 -86 -98 -99 -98 -5 0 -10 -4 -10 -9 0 -13 -43
-22 -51 -10 -19 32 21 87 91 124 85 44 105 53 109 50 2 -3 -16 -28 -40 -57z
m1366 42 c-3 -5 -2 -10 2 -10 10 0 8 -65 -2 -96 -4 -12 -17 -26 -29 -32 -18
-8 -26 -7 -38 8 -9 10 -22 20 -29 23 -10 3 4 23 41 61 52 54 68 67 55 46z
m-597 -27 c-7 -16 -15 -32 -19 -38 -4 -5 -5 -25 -4 -44 5 -54 -57 -95 -92 -60
-18 18 5 81 43 116 19 18 34 30 34 27 0 -3 7 2 16 10 24 25 35 19 22 -11z"/>
<path d="M4907 1894 c-20 -20 -69 -79 -109 -132 -161 -216 -169 -232 -170
-314 0 -61 10 -88 30 -81 20 8 62 45 62 55 0 10 123 139 127 134 2 -2 -12 -33
-32 -68 -52 -97 -45 -150 18 -134 21 5 34 15 98 73 16 15 26 19 27 11 2 -38
14 -65 38 -84 45 -37 109 -18 179 55 33 34 63 81 51 81 -1 0 -16 -11 -32 -26
-60 -52 -135 -69 -154 -35 -18 34 -11 47 30 61 22 7 40 17 40 22 0 4 5 8 11 8
15 0 71 48 86 74 18 31 16 64 -4 74 -25 12 -95 -4 -121 -28 -12 -11 -24 -20
-27 -20 -13 0 -68 -68 -85 -105 -25 -54 -104 -102 -116 -70 -6 16 24 85 37 85
5 0 9 6 9 13 0 7 9 19 20 27 21 15 26 45 11 68 -16 26 -64 -1 -152 -88 -74
-74 -88 -84 -91 -66 -3 19 19 49 84 117 9 10 25 30 35 46 10 15 26 37 36 48
10 11 41 52 68 90 27 39 54 76 59 83 6 6 7 12 3 12 -4 0 -2 5 4 11 15 15 5 39
-16 39 -9 0 -33 -16 -54 -36z m237 -311 c-21 -28 -80 -73 -95 -73 -20 0 -7 28
31 69 22 23 40 39 40 35 0 -4 5 -3 12 4 24 24 33 -6 12 -35z"/>
<path d="M10594 1885 c-47 -50 -72 -79 -104 -125 -13 -19 -30 -41 -36 -47 -7
-7 -22 -29 -35 -50 -13 -21 -26 -40 -30 -43 -4 -3 -20 -32 -37 -65 -25 -49
-30 -71 -28 -118 4 -103 22 -95 166 72 48 55 66 60 35 8 -63 -107 -69 -167
-16 -167 18 0 45 16 83 50 l56 50 7 -39 c4 -26 15 -45 30 -55 27 -18 70 -27
80 -18 4 4 10 7 13 8 37 5 142 101 142 130 0 15 -2 15 -22 -2 -13 -10 -25 -21
-28 -24 -16 -16 -72 -40 -93 -40 -28 0 -59 34 -51 55 3 6 28 22 56 35 48 22
127 87 129 106 0 5 2 17 4 26 4 21 -16 38 -46 40 -59 4 -164 -74 -199 -148
-20 -41 -81 -94 -109 -94 -30 0 -10 67 35 115 38 41 46 62 34 85 -6 11 -19 20
-28 20 -10 0 -28 -9 -40 -20 -12 -11 -23 -20 -26 -20 -2 0 -38 -34 -79 -76
-66 -67 -74 -73 -74 -51 0 15 15 42 39 68 22 24 51 60 66 79 15 19 33 41 40
49 7 8 21 26 30 40 19 29 22 34 55 76 42 54 69 105 64 120 -10 24 -42 12 -83
-30z m239 -309 c-21 -27 -74 -66 -91 -66 -28 0 21 69 73 101 25 16 31 17 33 4
2 -8 -5 -25 -15 -39z"/>
<path d="M5635 1874 c-16 -7 -38 -11 -48 -8 -10 3 -39 -8 -67 -26 -42 -27 -57
-46 -66 -82 -1 -5 -3 -10 -4 -13 -1 -3 -3 -9 -4 -14 0 -5 -4 -13 -8 -16 -4 -4
-3 -16 3 -27 10 -19 11 -18 52 5 78 46 183 97 208 101 33 5 58 -10 52 -32 -2
-10 -31 -47 -64 -82 -91 -99 -166 -201 -174 -238 -9 -41 10 -91 39 -102 37
-14 122 64 285 260 21 25 21 25 -1 -20 -64 -137 -70 -197 -24 -236 15 -14 35
-21 47 -19 26 5 99 54 99 66 0 5 6 9 13 9 32 1 169 239 196 342 1 4 6 21 11
37 5 20 4 35 -4 47 -11 15 -16 13 -44 -22 -22 -27 -30 -45 -27 -63 10 -55
-191 -330 -242 -331 -31 0 7 106 68 191 10 15 19 30 19 33 0 4 22 39 48 79 42
63 47 76 38 98 -5 13 -11 26 -13 28 -6 9 -60 -22 -78 -45 -10 -14 -29 -37 -43
-52 -13 -15 -35 -42 -50 -61 -72 -92 -230 -241 -257 -241 -11 0 24 56 60 95
47 50 165 213 166 229 4 69 2 80 -18 103 -20 21 -31 24 -81 22 -31 -1 -70 -8
-87 -15z"/>
<path d="M1840 1869 c-78 -13 -180 -66 -203 -106 -15 -27 -27 -69 -29 -103 -2
-30 8 -43 52 -65 27 -14 51 -25 52 -24 2 0 10 -2 18 -5 8 -3 41 -10 72 -16 56
-11 118 -44 125 -67 6 -17 -37 -42 -99 -59 -61 -16 -268 -19 -268 -4 0 6 8 10
18 10 14 0 15 2 2 10 -9 6 -19 5 -29 -3 -8 -7 -17 -11 -20 -10 -11 3 -26 -12
-42 -41 -16 -28 -16 -30 6 -51 38 -39 194 -48 323 -20 12 3 31 7 41 9 30 7 75
32 94 54 31 34 47 92 33 121 -13 30 -42 57 -71 67 -10 4 -25 13 -33 20 -7 8
-22 14 -32 14 -10 0 -22 5 -25 10 -4 6 -10 8 -15 5 -5 -3 -17 -1 -27 4 -10 6
-37 15 -59 21 -51 12 -60 31 -31 58 26 25 92 54 101 45 3 -4 6 -2 6 4 0 5 6
10 13 11 6 0 53 4 102 7 82 5 88 5 70 -9 -40 -31 -67 -56 -59 -56 11 0 153 70
157 78 13 23 15 61 3 77 -10 15 -30 19 -102 21 -49 1 -114 -2 -144 -7z"/>
<path d="M8720 1854 c-35 -30 -110 -127 -110 -143 0 -5 -6 -16 -13 -23 -7 -7
-18 -26 -24 -43 -7 -16 -20 -53 -31 -80 -10 -28 -18 -60 -17 -73 1 -12 -4 -22
-12 -22 -7 0 -13 -4 -13 -9 0 -13 -57 -34 -75 -27 -24 9 -17 49 16 95 27 35
30 46 21 65 -8 18 -7 27 6 39 14 15 14 18 -2 36 -21 23 -48 20 -123 -15 -64
-30 -140 -93 -168 -139 -20 -32 -85 -93 -85 -79 0 4 -8 1 -17 -7 -10 -9 -33
-16 -50 -18 -27 -2 -35 2 -45 24 -14 30 -10 34 57 69 75 39 117 80 120 118 3
42 -12 56 -54 51 -64 -9 -165 -88 -189 -148 -38 -96 -1 -195 70 -190 38 2 95
35 132 75 24 26 38 35 47 29 8 -5 11 -9 6 -9 -4 0 2 -18 13 -40 29 -57 52 -53
122 21 48 52 56 57 52 35 -2 -14 -6 -38 -9 -52 -6 -37 10 -64 36 -59 23 5 82
46 117 82 12 13 22 23 23 21 0 -2 3 -16 5 -33 3 -16 16 -41 29 -54 l23 -24 46
23 c26 12 58 37 72 56 15 19 30 31 35 28 5 -3 7 -9 5 -13 -3 -4 4 -22 14 -39
32 -52 92 -39 154 33 23 27 26 28 31 10 15 -47 25 -65 36 -65 11 0 49 37 49
49 0 8 99 111 124 131 15 12 13 4 -9 -35 -16 -27 -32 -54 -36 -60 -19 -27 -19
-72 -1 -93 l18 -21 37 22 c20 12 57 42 83 67 27 25 45 40 41 34 -3 -6 3 -29
14 -52 25 -51 49 -54 105 -16 21 15 41 29 44 33 3 3 20 20 39 36 l33 30 -32
-65 c-21 -42 -55 -86 -95 -125 -69 -67 -105 -120 -102 -153 4 -53 78 3 149
113 18 28 36 52 40 53 5 2 8 9 8 15 1 7 19 26 40 42 66 51 110 92 110 104 0 8
-10 6 -30 -6 -16 -9 -30 -20 -30 -24 0 -3 -11 -11 -24 -17 -23 -10 -23 -10 7
51 37 74 43 96 38 134 -2 22 -38 1 -77 -45 -56 -66 -125 -131 -147 -138 -11
-3 -24 -1 -29 4 -29 29 39 118 127 167 60 32 85 54 85 71 0 16 -36 28 -52 17
-7 -4 -18 -8 -24 -9 -20 -3 -97 -52 -127 -80 -16 -15 -44 -51 -63 -80 -19 -30
-38 -54 -43 -54 -4 0 -18 -9 -30 -19 -44 -39 -69 3 -31 52 11 14 20 29 20 34
0 4 14 21 31 37 17 17 28 35 25 43 -4 8 -6 23 -6 34 0 24 -22 24 -58 2 -27
-17 -115 -104 -160 -157 -12 -15 -27 -24 -32 -21 -11 7 7 39 58 102 35 46 35
63 -2 63 -26 0 -75 -49 -101 -101 -39 -76 -120 -118 -156 -82 -16 16 -2 50 35
84 45 41 74 95 59 110 -34 34 -129 -47 -159 -135 -9 -24 -26 -49 -44 -61 -16
-11 -30 -23 -30 -27 0 -13 -47 -9 -58 5 -22 27 -18 82 8 104 11 10 20 20 20
24 0 4 15 23 34 44 19 20 40 50 46 66 7 16 17 29 22 29 5 0 6 5 3 10 -3 6 -3
10 2 10 24 0 50 159 27 167 -6 2 -26 -8 -44 -23z m0 -110 c-11 -26 -29 -59
-40 -74 -11 -16 -20 -32 -20 -37 0 -5 -11 -19 -25 -31 l-25 -22 4 22 c5 32 58
138 81 166 34 39 46 27 25 -24z m-620 -134 c0 -17 -93 -100 -112 -100 -16 0
-17 3 -7 22 33 62 119 118 119 78z m318 -9 c-9 -26 -100 -126 -149 -163 -41
-32 -62 -18 -49 32 7 30 87 93 141 110 21 7 39 17 39 22 0 4 5 8 11 8 6 0 9
-4 7 -9z"/>
<path d="M3023 1827 c-17 -23 -48 -75 -68 -115 -30 -59 -40 -70 -51 -61 -21
17 -81 2 -133 -34 -60 -40 -85 -68 -106 -114 -21 -47 -74 -85 -98 -71 -16 8
-16 11 -1 40 9 17 33 53 54 80 32 39 37 52 31 75 -4 16 -14 29 -22 31 -21 4
-103 -63 -167 -137 -59 -68 -76 -76 -61 -31 6 17 14 30 18 30 3 0 15 16 25 35
10 19 22 32 26 30 9 -6 20 31 12 39 -9 10 -46 6 -62 -7 -19 -15 -61 -73 -79
-108 -13 -26 -57 -65 -75 -67 -5 0 -12 -6 -16 -12 -9 -15 -86 -25 -93 -13 -3
5 -8 21 -11 36 -4 22 0 27 25 32 16 4 29 11 29 16 0 6 5 7 10 4 6 -3 10 -1 10
4 0 6 6 11 13 11 16 0 72 50 86 77 54 105 -93 96 -193 -12 -44 -48 -55 -73
-57 -130 -5 -137 106 -159 219 -44 23 23 42 38 42 31 0 -7 0 -14 0 -17 -1 -17
33 -65 45 -65 8 0 15 3 15 8 0 4 13 22 28 41 39 49 134 148 130 136 -2 -9 -17
-41 -68 -146 -13 -25 22 -63 51 -56 23 6 36 16 101 75 l26 24 21 -46 c11 -25
26 -46 34 -46 18 0 58 31 108 84 l38 41 -3 -57 c-3 -67 15 -108 40 -87 8 6 14
8 14 5 0 -10 60 32 88 61 12 13 22 28 22 33 0 5 7 7 15 4 8 -4 12 -10 10 -15
-6 -8 22 -58 38 -70 18 -13 62 6 103 46 28 27 48 39 56 33 7 -4 10 -8 6 -8
-12 0 14 -60 26 -60 11 0 56 44 56 55 0 9 105 117 125 127 19 10 19 10 3 -8
-30 -36 -64 -109 -67 -146 -2 -32 1 -38 23 -44 26 -6 60 12 123 69 35 32 46
35 49 12 4 -26 33 -65 49 -65 29 0 68 21 111 62 50 47 64 55 64 39 0 -6 -3
-11 -8 -11 -4 0 -18 -25 -31 -55 -13 -30 -27 -55 -31 -55 -4 0 -32 -25 -64
-56 -76 -75 -112 -155 -73 -162 18 -4 76 49 117 108 13 19 27 37 30 40 3 3 12
18 19 33 8 15 50 56 92 90 83 66 108 107 42 66 -21 -13 -44 -29 -51 -36 -28
-27 -23 -8 18 76 12 24 24 59 27 77 5 30 3 34 -15 34 -12 0 -36 -16 -54 -37
-64 -74 -147 -153 -160 -153 -29 0 -38 21 -23 56 17 42 65 85 137 124 59 31
87 63 68 75 -19 11 -50 14 -50 4 0 -6 -4 -8 -9 -5 -23 14 -201 -122 -201 -154
0 -5 0 -12 0 -15 -1 -10 -48 -51 -80 -69 -25 -15 -34 -16 -40 -6 -11 18 6 59
38 93 14 15 23 27 19 27 -4 0 2 9 13 20 22 22 26 51 10 81 -10 18 -12 18 -38
1 -51 -32 -89 -68 -151 -141 -47 -55 -67 -65 -55 -28 8 25 53 88 71 100 7 4
13 17 13 27 0 32 -50 26 -82 -10 -14 -16 -28 -35 -32 -42 -3 -7 -15 -26 -26
-43 -11 -16 -23 -36 -26 -42 -3 -7 -12 -13 -18 -13 -7 0 -17 -5 -24 -12 -19
-19 -53 -20 -73 -2 -16 15 -17 19 -5 43 8 14 26 37 41 51 41 39 70 89 57 102
-20 20 -84 -8 -112 -48 -14 -19 -29 -41 -35 -47 -11 -13 -16 -30 -18 -59 -1
-10 -4 -18 -7 -18 -3 0 -21 -14 -39 -31 -20 -18 -42 -29 -55 -27 -19 3 -21 9
-20 57 1 29 5 56 10 60 5 3 10 13 12 21 3 14 50 98 98 175 42 67 57 108 47
124 -16 26 -27 22 -60 -22z m-760 -225 c-13 -35 -113 -116 -113 -91 0 27 34
72 78 101 29 19 44 15 35 -10z m626 -34 c-14 -27 -49 -73 -49 -65 0 3 -15 -8
-32 -24 -55 -52 -78 -65 -88 -49 -8 13 5 55 24 77 12 13 136 82 149 83 4 0 2
-10 -4 -22z"/>
<path d="M7054 1848 c-27 -30 -70 -101 -66 -110 1 -5 -1 -8 -6 -8 -4 0 -13
-15 -21 -32 -23 -54 -30 -60 -53 -43 -18 12 -27 11 -74 -10 -79 -35 -179 -136
-157 -159 4 -3 2 -6 -3 -6 -6 0 -20 -9 -32 -20 -12 -12 -22 -18 -22 -14 0 3
-7 1 -15 -6 -19 -15 -45 -6 -45 16 0 20 34 76 66 112 50 53 23 86 -61 77 -53
-5 -56 -5 -50 14 9 30 -31 15 -60 -23 -37 -49 -46 -80 -28 -98 13 -14 11 -20
-21 -53 -42 -43 -61 -39 -40 10 23 56 27 100 9 115 -8 7 -12 16 -9 21 3 5 -1
15 -8 22 -14 16 -78 6 -116 -19 -88 -58 -140 -173 -100 -221 6 -7 7 -13 3 -13
-4 0 4 -12 19 -26 22 -22 32 -26 63 -21 20 4 49 18 64 33 16 15 40 28 53 30
34 4 68 30 107 86 30 40 55 57 94 63 19 3 25 -6 13 -20 -33 -36 -40 -48 -53
-85 -13 -35 -12 -80 1 -102 3 -4 18 -8 33 -8 19 0 42 15 78 49 50 48 63 53 63
23 0 -21 39 -72 56 -72 8 0 41 27 74 60 33 33 60 57 61 53 0 -5 0 -31 -1 -59
-3 -95 50 -98 137 -7 29 31 53 60 53 65 0 17 -28 7 -55 -22 -29 -31 -69 -40
-77 -17 -9 23 0 74 23 128 13 30 25 56 29 59 7 7 70 110 70 116 0 2 12 23 26
45 40 64 22 126 -22 77z m-750 -285 c-9 -15 -18 -49 -20 -76 -2 -54 -21 -76
-65 -77 -50 0 -41 77 14 126 65 57 100 70 71 27z m601 6 c-13 -40 -156 -161
-172 -146 -7 8 6 60 21 79 10 14 139 87 154 88 2 0 0 -10 -3 -21z"/>
<path d="M3211 1762 c-27 -34 -27 -61 1 -71 17 -6 27 -2 44 19 26 30 23 65 -6
73 -11 3 -26 -5 -39 -21z"/>
<path d="M8912 1765 c-34 -28 -38 -61 -10 -76 14 -8 24 -4 43 15 28 28 32 58
11 75 -11 9 -20 6 -44 -14z"/>
<path d="M12481 1765 c-35 -30 -40 -59 -13 -74 39 -21 88 57 56 89 -8 8 -20 4
-43 -15z"/>
<path d="M1188 1607 c-31 -8 -68 -40 -68 -59 0 -13 189 -1 206 13 8 6 14 9 14
5 0 -3 9 2 20 11 11 10 16 21 11 26 -11 11 -143 14 -183 4z"/>
<path d="M13604 1612 c-49 -7 -65 -14 -84 -34 -11 -12 -20 -25 -20 -30 0 -4
42 -6 93 -5 79 3 99 7 136 29 40 24 42 26 21 33 -24 8 -113 12 -146 7z"/>
</g>
</svg>
